<?xml version="1.0" encoding="utf-8"?>
<!-- Generator: Adobe Illustrator 27.0.0, SVG Export Plug-In . SVG Version: 6.00 Build 0)  -->
<svg version="1.1" id="Layer_1" xmlns="http://www.w3.org/2000/svg" xmlns:xlink="http://www.w3.org/1999/xlink" x="0px" y="0px"
	 viewBox="0 0 512 512" style="enable-background:new 0 0 512 512;" xml:space="preserve">
<style type="text/css">
	.st0{fill-rule:evenodd;clip-rule:evenodd;fill:#EC2224;}
	.st1{fill-rule:evenodd;clip-rule:evenodd;fill:#FFFFFF;}
</style>
<g id="XMLID_1_">
	<path id="XMLID_3_" class="st0" d="M396.27,194.14h107.45c4.63,0,8.28,3.79,8.28,8.28v107.45c0,4.63-3.79,8.28-8.28,8.28H396.27
		c-4.63,0-8.28-3.79-8.28-8.28V202.42C388,197.93,391.64,194.14,396.27,194.14"/>
	<path id="XMLID_4_" class="st0" d="M137.61,194.14h107.45c4.63,0,8.28,3.79,8.28,8.28v107.45c0,4.63-3.79,8.28-8.28,8.28H137.61
		c-4.63,0-8.28-3.79-8.28-8.28V202.42C129.33,197.93,133.12,194.14,137.61,194.14"/>
	<path id="XMLID_5_" class="st0" d="M266.94,194.14h107.45c4.63,0,8.28,3.79,8.28,8.28v107.45c0,4.63-3.79,8.28-8.28,8.28H266.94
		c-4.63,0-8.28-3.79-8.28-8.28V202.42C258.67,197.93,262.31,194.14,266.94,194.14"/>
	<path id="XMLID_6_" class="st0" d="M8.28,193.86h107.45c4.63,0,8.28,3.79,8.28,8.28v107.45c0,4.63-3.79,8.28-8.28,8.28H8.28
		c-4.63,0-8.28-3.79-8.28-8.28V202.13C0,197.51,3.79,193.86,8.28,193.86"/>
	<path id="XMLID_7_" class="st1" d="M181.23,270.31h-21.32c0.42,3.51,1.26,6.59,2.67,9.4c1.54,2.95,3.65,5.47,6.31,7.57
		c2.67,2.1,5.89,3.65,9.68,4.77c3.79,1.12,8,1.54,12.62,1.54c5.19,0,9.68-0.56,13.61-1.54c3.93-0.98,7.15-2.67,9.96-4.63
		c2.67-2.1,4.77-4.63,6.03-7.57c1.4-2.95,1.96-6.45,1.96-10.24c0-4.07-1.12-7.43-2.95-9.96c-1.82-2.67-4.49-4.63-7.57-6.17
		c-4.49-2.38-9.26-3.51-13.89-4.63c-1.96-0.56-4.07-0.98-6.03-1.54c-3.09-0.7-5.33-1.82-7.01-3.09c-1.96-1.4-2.95-3.09-2.95-4.49
		c0-0.98,0.14-1.68,0.56-2.52c0.28-0.7,0.84-1.26,1.54-1.82l0,0c1.54-0.98,3.93-1.4,6.31-1.4c2.52,0.14,4.91,0.7,6.45,1.68
		c0.84,0.56,1.54,1.26,1.96,2.1c0.42,0.7,0.7,1.54,0.98,2.52h20.76c-0.42-3.23-1.26-6.17-2.67-8.7c-1.4-2.67-3.51-5.05-6.03-6.87
		c-2.52-1.96-5.61-3.37-9.26-4.35c-3.65-0.98-7.72-1.4-12.2-1.4c-4.63,0-8.84,0.56-12.48,1.54c-3.65,0.98-6.73,2.52-9.4,4.49
		s-4.63,4.35-5.89,7.01c-1.26,2.67-1.96,5.75-1.96,9.26c0,5.33,1.54,9.12,4.21,11.92c2.67,2.95,6.59,4.91,11.22,6.45l0,0
		c1.54,0.56,3.37,1.12,5.47,1.82c2.1,0.56,4.49,1.26,7.15,1.96l0,0c0.42,0.14,0.7,0.14,1.12,0.28c0.56,0.14,1.4,0.28,1.96,0.42l0,0
		c3.09,0.84,5.33,1.82,6.87,3.09c1.82,1.4,2.67,3.09,2.67,4.63c0,0.98-0.28,1.82-0.7,2.52c-0.42,0.7-1.12,1.4-1.96,1.82l0,0
		c-1.82,1.12-4.63,1.54-7.29,1.54c-2.67,0-5.33-0.7-7.01-1.82l0,0c-0.84-0.56-1.68-1.4-2.24-2.38
		C181.94,272.41,181.51,271.43,181.23,270.31"/>
	<polygon id="XMLID_8_" class="st1" points="290.09,292.47 308.46,292.47 308.46,266.24 308.46,265.54 309.02,265.54 332.03,265.54 
		332.73,265.54 332.73,266.24 332.73,292.47 351.25,292.47 351.25,219.81 332.73,219.81 332.73,246.18 332.73,246.88 332.03,246.88 
		309.02,246.88 308.46,246.88 308.46,246.18 308.46,219.81 290.09,219.81 	"/>
	<path id="XMLID_9_" class="st1" d="M49.94,219.53H31.42v45.87c0,5.89,0,10.66,0.42,14.31c0.42,3.51,1.12,6.17,2.38,8
		c1.26,1.82,3.09,2.95,5.75,3.65c2.81,0.7,6.31,0.98,11.08,0.98h21.88c4.63,0,8.28-0.14,10.94-0.7c2.67-0.56,4.49-1.54,5.75-3.37
		c1.26-1.68,2.1-4.21,2.52-7.57c0.42-3.51,0.56-8.14,0.56-14.03v-47.13H74.2v50.36v0.14c0,0.14,0,0.14,0,0.14l0,0
		c0,0.42-0.14,0.98-0.42,1.4c-0.28,0.42-0.56,0.84-0.98,1.12c-0.42,0.28-0.84,0.56-1.26,0.84c-0.42,0.14-0.98,0.28-1.54,0.28h-0.56
		l0,0H54.29l0,0h-0.28l0,0l0,0l0,0h-0.56l0,0c-0.28,0-0.7-0.14-0.98-0.14c-0.56-0.14-0.98-0.42-1.26-0.7
		c-0.42-0.28-0.7-0.7-0.84-1.26c-0.14-0.42-0.28-0.98-0.28-1.54l0,0v-0.14l0,0l0,0l0,0v-0.56l0,0v-49.94H49.94z"/>
	<path id="XMLID_12_" class="st1" d="M419.28,292.47h18.52v-16.41v-0.7h0.7h23h0.7v0.7v16.41h18.52v-46.99
		c0-5.89-0.14-10.52-0.56-14.03s-1.12-5.89-2.52-7.57c-1.26-1.68-3.09-2.67-5.75-3.37c-2.67-0.56-6.31-0.7-10.94-0.7h-21.88
		c-4.77,0-8.42,0.28-11.08,0.98c-2.67,0.7-4.49,1.82-5.75,3.65c-1.26,1.82-1.96,4.49-2.38,8c-0.42,3.65-0.42,8.28-0.42,14.31
		L419.28,292.47z M437.94,256.14v-13.33l0,0v-0.56l0,0l0,0l0,0v-0.14l0,0c0-0.56,0.14-1.12,0.28-1.54c0.14-0.42,0.56-0.84,0.84-1.26
		c0.42-0.28,0.84-0.56,1.26-0.7c0.28-0.14,0.56-0.14,0.98-0.14l0,0h0.56l0,0l0,0l0,0h0.28l0,0h15.15l0,0h0.7
		c0.56,0,0.98,0.14,1.54,0.28c0.42,0.14,0.98,0.42,1.26,0.84c0.42,0.28,0.7,0.7,0.98,1.12c0.28,0.42,0.42,0.84,0.42,1.4
		c0,0,0,0,0,0.14l0,0c0,0.14,0,0.14,0,0.14v13.89v0.7h-0.7h-23h-0.7v-0.84H437.94z"/>
</g>
</svg>
